<?xml version="1.0" ?><!DOCTYPE svg  PUBLIC '-//W3C//DTD SVG 1.1//EN'  'http://www.w3.org/Graphics/SVG/1.1/DTD/svg11.dtd'><svg enable-background="new 0 0 128 128" height="128px" id="Layer_1" version="1.1" viewBox="0 0 128 128" width="128px" xml:space="preserve" xmlns="http://www.w3.org/2000/svg" xmlns:xlink="http://www.w3.org/1999/xlink"><g><circle cx="64" cy="64" fill="#125688" r="64"/></g><g><path d="M91.77,28H36.229C31.702,28,28,31.703,28,36.229v55.542c0,4.525,3.702,8.229,8.229,8.229h55.543   c4.525,0,8.229-3.703,8.229-8.229V36.229C100,31.703,96.297,28,91.77,28z M51.26,58.171c2.239-4.792,7.101-8.114,12.74-8.114   c5.64,0,10.5,3.322,12.74,8.114c0.844,1.806,1.318,3.818,1.318,5.943c0,7.763-6.295,14.057-14.058,14.057   c-7.764,0-14.058-6.294-14.058-14.057C49.941,61.99,50.416,59.977,51.26,58.171z M91.599,89.371c0,1.132-0.925,2.057-2.058,2.057   H38.457c-1.132,0-2.057-0.925-2.057-2.057v-31.2h6.111c-0.526,1.912-0.797,3.906-0.797,5.943c0,5.953,2.318,11.549,6.528,15.758   c4.209,4.21,9.806,6.526,15.758,6.526s11.549-2.317,15.758-6.526c4.209-4.21,6.527-9.806,6.527-15.759   c0-2.037-0.271-4.031-0.797-5.943h6.11V89.371L91.599,89.371z M91.599,47.543c0,1.509-1.233,2.744-2.743,2.744h-8.229   c-1.509,0-2.743-1.235-2.743-2.744v-8.228c0-1.509,1.234-2.743,2.743-2.743h8.229c1.509,0,2.742,1.234,2.742,2.743V47.543   L91.599,47.543z" fill="#FFFFFF"/></g></svg>